# xmcd
#
# Track frame offsets: 
#        150
#        24551
#        46078
#        67739
#        85903
#        108079
#        136620
#        151655
#        172915
#        189281
#
# Disc length: 2723 seconds
#
# Revision: 0
# Processed by: cddbd v1.5.2PL0 Copyright (c) Steve Scherf et al.
# Submitted via: ExactAudioCopy v0.99pb4
#
DISCID=620aa10a
DTITLE=Earl Thomas With Paddy Milner and The Big Sounds - Earl Thomas Wi
DTITLE=th Paddy Milner and The Big Sounds
DYEAR=2008
DGENRE=Blues
TTITLE0=I See It My Way
TTITLE1=All You Need
TTITLE2=Right To Your Soul
TTITLE3=Same Old Blues
TTITLE4=Better To Have Loved And Lost
TTITLE5=Daylight
TTITLE6=Stone Cold Sober
TTITLE7=Lead A Hourse To Water
TTITLE8=Deconstruct The Devil
TTITLE9=You've Got Me
EXTD=
EXTT0=
EXTT1=
EXTT2=
EXTT3=
EXTT4=
EXTT5=
EXTT6=
EXTT7=
EXTT8=
EXTT9=
PLAYORDER=
